<?xml version="1.0" standalone="no"?>
<!DOCTYPE svg PUBLIC "-//W3C//DTD SVG 1.1//EN" "http://www.w3.org/Graphics/SVG/1.1/DTD/svg11.dtd" >
<svg xmlns="http://www.w3.org/2000/svg">
<metadata>Generated by IcoMoon</metadata>
<defs>
<font id="icomoon" horiz-adv-x="1024">
<font-face units-per-em="1024" ascent="960" descent="-64" />
<missing-glyph horiz-adv-x="1024" />
<glyph unicode="&#x20;" horiz-adv-x="512" d="" />
<glyph unicode="&#xe900;" glyph-name="constructor" d="M514.009 536.668h15.744c7.745 0 14.017 6.272 14.017 14.015 0 7.745-6.272 14.017-14.017 14.017l-15.295-0.544 5.728 37.728c0.096 0.64 0.16 1.345 0.16 2.113 0 7.743-6.272 14.015-14.017 14.015-7.008 0-12.8-5.12-13.824-11.839v-0.065l-5.728-37.728c-0.191-1.248-0.319-2.656-0.319-4.128 0-15.2 12.319-27.52 27.52-27.551l0.031-0.032zM511.002 455.356c0.928-0.032 2.016-0.063 3.135-0.063 24.257 0 46.112 10.368 61.377 26.88l0.063 0.063c1.952 2.4 3.137 5.472 3.137 8.832 0 7.745-6.272 14.017-14.017 14.017-4.32 0-8.16-1.952-10.72-4.992l-0.032-0.032c-10.208-10.368-24.416-16.768-40.095-16.768-0.993 0-1.985 0.032-2.976 0.063h0.128c-0.864-0.031-1.857-0.063-2.848-0.063-15.679 0-29.887 6.432-40.096 16.768-2.591 2.944-6.335 4.799-10.559 4.799-7.745 0-14.017-6.272-14.017-14.015 0-3.265 1.121-6.24 2.976-8.641l-0.032 0.032c15.297-16.608 37.152-26.976 61.409-26.976 1.087 0 2.176 0.032 3.263 0.063h-0.16l0.065 0.032zM829.689 261.692c-20.064 5.088-43.52 8.641-67.552 9.856l-0.896 0.032c-29.472 3.296-60.544 2.656-89.025 9.856-10.527 3.040-23.776 8.8-27.36 19.007-0.288 0.768-0.575 1.44-0.928 2.080l0.032-0.063c-2.272 4.031-3.903 8.735-4.608 13.696l-0.032 0.224-7.776 60.832c24.769 20.064 44.16 45.792 56.385 75.232l0.447 1.248c7.489 19.521 13.792 42.624 17.857 66.497l0.319 2.207c0.384 1.985 0.8 3.872 1.184 5.825 3.328-0.608 7.2-0.961 11.104-0.961 0.032 0 0.065 0 0.096 0 37.953 0 68.736 30.752 68.736 68.736 0 19.937-8.479 37.888-22.047 50.432l-0.032 0.032h17.215c16.544 0.032 29.984 13.44 30.017 29.984v27.488c-0.032 16.544-13.44 29.984-29.984 30.017h-39.615v59.007c-0.032 27.040-14.689 50.688-36.512 63.392l-0.352 0.192-108.385 62.016c-1.983 1.152-4.383 1.856-6.943 1.856h-29.505v9.728c-0.032 16.448-13.344 29.76-29.792 29.76h-39.52c-16.449-0.032-29.793-13.344-29.793-29.792v-9.728h-29.503c-2.56 0-4.96-0.704-7.008-1.888l0.063 0.032-108.384-62.016c-22.176-12.896-36.832-36.512-36.864-63.584v-59.008h-39.584c-16.544-0.032-29.984-13.44-30.015-29.984v-27.455c0.031-16.544 13.44-29.984 29.983-30.017h15.201c-13.6-12.607-22.113-30.56-22.113-50.495 0-37.953 30.785-68.736 68.736-68.736 4.673 0 9.216 0.447 13.633 1.343l-0.449-0.063c0.416-2.048 0.833-4.065 1.249-6.113 4.352-26.112 10.687-49.248 19.040-71.392l-0.864 2.592c12.672-30.72 32.096-56.416 56.479-76.192l0.353-0.288-7.68-60.063c-3.712-17.184-15.841-30.848-31.776-36.673l-0.352-0.096c-5.601-1.568-12.001-2.497-18.657-2.497-16.159-1.599-32.992-2.944-50.144-3.999-32.352-1.217-63.072-5.601-92.64-12.897l3.104 0.64c-83.105-23.424-143.041-98.463-143.201-187.551v-124.16c0.032-7.712 6.272-13.952 13.984-13.952 0.032 0 0.032 0 0.064 0h893.727c7.712 0 13.984 6.272 13.984 13.983v124.16c-0.16 89.088-60.064 164.128-141.792 187.233l-1.376 0.319 0.063 0.128zM767.481 242.971c18.080-1.215 34.816-3.68 51.072-7.359l-2.208 0.416v-136.064h-48.864v143.007zM718.906 555.356c-1.92 0.032-3.744 0.224-5.536 0.512l0.224-0.032 9.537 43.488c2.463 10.945 3.999 23.617 4.224 36.608v0.193c18.688-3.968 32.512-20.352 32.512-39.936 0-22.528-18.273-40.8-40.801-40.8-0.063 0-0.128 0-0.191 0l0.032-0.032zM632.153 866.844l24.352-13.92v-59.584h-24.352v73.504zM587.353 892.444l16.8-9.6v-103.52c0-7.743 6.272-14.015 14.017-14.015h52.352c7.711 0 13.983 6.272 13.983 13.983v57.601l8.001-4.576c13.696-7.968 22.752-22.56 22.784-39.264v-59.008h-153.696v158.4h25.759zM490.426 930.236c0 0.992 0.799 1.792 1.792 1.792h39.487c0.992 0 1.792-0.8 1.792-1.792v-196.159h-43.104v196.159h0.032zM391.834 866.844v-73.504h-24.352v59.584l24.352 13.92zM308.762 793.052c0.032 16.704 9.088 31.296 22.56 39.168l8.223 4.704v-57.6c0-7.743 6.272-14.015 14.017-14.015h52.32c7.745 0 13.984 6.272 13.984 13.983v103.553l16.8 9.6h25.791v-158.4h-153.696v59.008zM239.13 676.572v27.455c0 1.121 0.896 2.017 2.016 2.017h541.728c1.12 0 2.016-0.896 2.016-2.017v-27.455c0-1.12-0.896-2.016-2.016-2.016h-541.761c-1.12 0-2.016 0.896-2.016 2.016h0.032zM262.233 596.188c0.065 20.224 14.817 36.992 34.176 40.16l0.225 0.032c0.256-13.28 1.792-26.049 4.48-38.368l-0.225 1.28 9.472-43.201c-2.304-0.447-4.927-0.736-7.615-0.736-22.368 0-40.513 18.144-40.513 40.511 0 0.097 0 0.225 0 0.321zM361.498 464.253c-6.849 18.048-12.609 39.455-16.352 61.568l-0.288 2.079c-1.44 7.361-2.881 14.657-4.448 21.888l-12.16 55.424c-2.336 10.433-3.712 22.4-3.712 34.657v6.687h66.016c-0.321-1.632-0.512-3.519-0.544-5.439 0-0.128 0-0.321 0-0.48 0-18.497 14.976-33.473 33.473-33.473 18.495 0 33.471 14.976 33.471 33.473 0 2.079-0.191 4.127-0.544 6.112l0.032-0.193h111.297c-0.353-1.823-0.544-3.936-0.544-6.112 0-18.495 14.976-33.471 33.471-33.471 18.497 0 33.473 14.976 33.473 33.471 0 2.144-0.193 4.256-0.608 6.304l0.031-0.224h66.017v-6.688c0-12.288-1.345-24.224-3.905-35.744l0.193 1.089-12.16-55.489c-1.601-7.2-3.009-14.527-4.48-21.888-4.033-24.192-9.825-45.568-17.44-66.080l0.8 2.464c-11.457-27.711-29.409-50.784-52.033-68l-0.384-0.287c-1.152-0.64-2.176-1.377-3.072-2.241-26.368-19.135-59.36-30.592-95.039-30.592-35.681 0-68.673 11.488-95.488 30.944l0.48-0.319c-0.896 0.864-1.888 1.599-3.009 2.208l-0.063 0.031c-23.008 17.505-40.96 40.576-52 67.2l-0.384 1.089-0.096 0.032zM412.153 311.356c0.096 0.416 0.193 0.928 0.256 1.44v0.063l5.984 46.752c26.945-15.36 59.233-24.448 93.633-24.448s66.688 9.056 94.592 24.928l-0.961-0.48 5.985-46.752c1.152-8.479 3.712-16.128 7.424-23.071l-0.193 0.352c4.512-10.945 12.32-19.777 22.144-25.472l0.256-0.128c-35.968-25.632-80.8-40.992-129.248-40.992-48.512 0-93.408 15.392-130.113 41.568l0.672-0.447c14.529 11.583 25.025 27.68 29.377 46.143l0.128 0.577 0.063-0.032zM335.993 250.011c6.112 0 12.097 0.672 17.824 1.889l-0.577-0.097c42.945-35.040 98.336-56.288 158.72-56.288 60.897 0 116.736 21.6 160.288 57.537l-0.416-0.353c4.161-0.959 8.448-1.823 13.121-2.495 13.792-1.76 27.424-2.784 40.576-3.808 4.608-0.353 9.279-0.737 13.952-1.121v-145.311h-454.977v145.951l1.056 0.065c17.184 1.024 34.144 2.4 50.432 4.031zM207.609 236.187c13.952 3.425 30.624 6.113 47.681 7.521l1.183 0.063v-143.807h-48.864v136.223zM79.129 74.139c0.16 68 40.992 126.433 99.424 152.257l1.056 0.416v-262.849h-100.48v110.176zM207.609-36.004v108h608.736v-108h-608.736zM944.857-36.004h-100.48v262.816c59.52-26.272 100.321-84.673 100.48-152.641v-110.176z" />
<glyph unicode="&#xe901;" glyph-name="Group" d="M1017.234 464.41l-232.724 232.724c-8.357 9.762-23.052 10.9-32.811 2.538-9.763-8.36-10.902-23.051-2.54-32.813 0.78-0.91 1.631-1.76 2.54-2.538l192.926-193.161h-921.353c-12.852 0-23.272-10.42-23.272-23.274s10.42-23.272 23.272-23.272h921.353l-192.926-192.927c-9.763-8.361-10.902-23.052-2.54-32.815 8.361-9.76 23.052-10.898 32.815-2.536 0.91 0.78 1.76 1.627 2.536 2.536l232.724 232.726c9.023 9.074 9.023 23.734 0 32.811z" />
<glyph unicode="&#xe902;" glyph-name="icon-group" d="M27.453 390.058l212.892-2.715-146.139-267.016 212.89-2.717 146.139 267.016 6.315 403.242-425.782 5.434-6.315-403.244zM575.069 787.395l-6.313-403.243 212.89-2.717-146.137-267.016 212.89-2.717 146.139 267.016 6.315 403.243-425.784 5.434z" />
<glyph unicode="&#xe903;" glyph-name="lich" d="M130.029 62.97h146.317v146.317h-146.317v-146.317zM308.861 62.97h162.574v146.317h-162.574v-146.317zM130.029 241.805h146.317v162.571h-146.317v-162.571zM308.861 241.805h162.574v162.571h-162.574v-162.571zM130.029 436.891h146.317v146.317h-146.317v-146.317zM503.95 62.97h162.574v146.317h-162.574v-146.317zM308.861 436.891h162.574v146.317h-162.574v-146.317zM699.039 62.97h146.318v146.317h-146.318v-146.317zM503.95 241.805h162.574v162.571h-162.574v-162.571zM325.119 680.752v146.317c0 4.403-1.693 8.129-5.080 11.177-3.048 3.387-6.774 5.080-11.177 5.080h-32.515c-4.403 0-8.298-1.693-11.685-5.080-3.048-3.048-4.572-6.774-4.572-11.177v-146.317c0-4.403 1.524-8.298 4.572-11.685 3.387-3.048 7.282-4.572 11.685-4.572h32.515c4.403 0 8.129 1.524 11.177 4.572 3.387 3.387 5.080 7.282 5.080 11.685zM699.039 241.805h146.318v162.571h-146.318v-162.571zM503.95 436.891h162.574v146.317h-162.574v-146.317zM699.039 436.891h146.318v146.317h-146.318v-146.317zM715.296 680.752v146.317c0 4.403-1.696 8.129-5.082 11.177-3.046 3.387-6.772 5.080-11.176 5.080h-32.515c-4.403 0-8.298-1.693-11.685-5.080-3.048-3.048-4.572-6.774-4.572-11.177v-146.317c0-4.403 1.524-8.298 4.572-11.685 3.387-3.048 7.282-4.572 11.685-4.572h32.515c4.403 0 8.129 1.524 11.176 4.572 3.386 3.387 5.082 7.282 5.082 11.685zM910.387 713.267v-650.297c0-17.613-6.438-32.851-19.309-45.722s-28.109-19.309-45.722-19.309h-715.327c-17.612 0-32.853 6.438-45.724 19.309s-19.306 28.109-19.306 45.722v650.297c0 17.612 6.435 32.854 19.306 45.724s28.112 19.306 45.724 19.306h65.030v48.772c0 22.354 7.96 41.49 23.878 57.409s35.055 23.878 57.409 23.878h32.515c22.354 0 41.49-7.959 57.409-23.878s23.878-35.055 23.878-57.409v-48.772h195.089v48.772c0 22.354 7.959 41.49 23.878 57.409s35.055 23.878 57.409 23.878h32.515c22.356 0 41.492-7.959 57.409-23.878s23.878-35.055 23.878-57.409v-48.772h65.030c17.613 0 32.851-6.435 45.722-19.306s19.309-28.112 19.309-45.724z" />
<glyph unicode="&#xe904;" glyph-name="local" d="M757.662 131.077c-29.333 13.414-67.212 24.264-110.922 31.902 12.753 12.66 25.8 26.196 38.875 40.569 52.219 57.405 93.891 116.056 123.853 174.322 37.874 73.658 57.079 146.955 57.079 217.847 0 196.762-167.042 356.84-372.364 356.84s-372.364-160.079-372.364-356.84c0-70.892 19.204-144.189 57.079-217.847 29.961-58.27 71.63-116.918 123.852-174.322 13.074-14.373 26.119-27.913 38.875-40.574-43.711-7.638-81.589-18.483-110.925-31.902-55.795-25.516-67.507-54.64-67.507-74.58 0-25.246 18.223-61.165 105.029-88.897 60.664-19.377 140.91-30.050 225.96-30.050s165.297 10.673 225.96 30.050c86.807 27.732 105.030 63.651 105.030 88.897 0 19.94-11.711 49.064-67.51 74.584zM163.192 595.717c0 174.899 148.482 317.191 330.99 317.191 182.51 0 330.99-142.292 330.99-317.191 0-147.186-92.518-279.966-170.133-365.438-66.672-73.425-134.15-125.566-160.857-145.115-26.713 19.554-94.194 71.699-160.859 145.11-77.613 85.476-170.131 218.256-170.131 365.442zM707.058 5.208c-56.557-18.064-132.156-28.016-212.876-28.016s-156.321 9.951-212.876 28.016c-56.643 18.092-76.74 38.935-76.74 51.284 0 20.596 53.912 56.064 173.428 71.913 17.699-16.123 34.181-30.157 48.583-41.905-21.944-7.266-35.829-18.008-35.829-30.008 0-21.904 46.318-39.647 103.434-39.647s103.434 17.743 103.434 39.647c0 11.999-13.885 22.742-35.829 30.008 14.402 11.748 30.882 25.782 48.583 41.905 119.515-15.849 173.428-51.316 173.428-71.913 0-12.349-20.098-33.192-76.739-51.284zM783.779 595.697c0 153.037-129.922 277.542-289.617 277.542s-289.616-124.505-289.616-277.542c0-153.035 129.922-277.544 289.616-277.544s289.617 124.509 289.617 277.544zM245.919 595.697c0 131.174 111.361 237.893 248.242 237.893 136.883 0 248.243-106.718 248.243-237.893 0-131.173-111.36-237.892-248.243-237.892-136.881 0-248.242 106.719-248.242 237.892zM514.83 456.951c0-10.947 9.262-19.824 20.687-19.824h82.746c11.427 0 20.689 8.876 20.689 19.824v99.123h41.374c8.588 0 16.282 5.085 19.335 12.779 3.049 7.694 0.824 16.395-5.595 21.862l-186.182 158.596c-7.838 6.677-19.648 6.677-27.486 0l-186.182-158.596c-6.419-5.467-8.645-14.168-5.594-21.862s10.749-12.779 19.338-12.779h41.374v-99.123c0-10.947 9.262-19.824 20.687-19.824h82.748c11.426 0 20.687 8.876 20.687 19.824v59.474h41.373v-59.474zM452.77 556.074c-11.426 0-20.687-8.875-20.687-19.825v-59.475h-41.374v99.124c0 10.949-9.262 19.825-20.687 19.825h-7.65l131.771 112.248 131.772-112.248h-7.652c-11.422 0-20.685-8.875-20.685-19.825v-99.124h-41.375v59.475c0 10.949-9.262 19.825-20.687 19.825h-82.748z" />
<glyph unicode="&#xe905;" glyph-name="menu" d="M0 827.524c0 21.74 17.644 39.385 39.385 39.385h682.666c21.74 0 39.387-17.644 39.387-39.385s-17.647-39.385-39.387-39.385h-682.666c-21.74 0-39.385 17.644-39.385 39.385zM984.616 499.321h-945.232c-21.74 0-39.385-17.647-39.385-39.387s17.644-39.384 39.385-39.384h945.232c21.74 0 39.384 17.644 39.384 39.384s-17.644 39.387-39.384 39.387zM512 131.73h-472.615c-21.74 0-39.385-17.644-39.385-39.384s17.644-39.384 39.385-39.384h472.615c21.74 0 39.384 17.644 39.384 39.384s-17.644 39.384-39.384 39.384z" />
<glyph unicode="&#xe906;" glyph-name="Scrool-down" d="M543.508-24.615c0-21.752-17.633-39.385-39.385-39.385s-39.385 17.633-39.385 39.385c0 21.752 17.633 39.385 39.385 39.385s39.385-17.633 39.385-39.385zM477.538 256.985h68.923c95.846 0 172.308 77.539 172.308 172.308v206.769c0 95.846-76.461 172.308-172.308 172.308h-68.923c-94.769 0-172.308-76.461-172.308-172.308v-206.769c0-94.769 77.539-172.308 172.308-172.308zM684.308 429.292c0-75.385-61.385-136.769-137.846-137.846h-17.232l0.002 172.308h155.076v-34.462zM339.692 636.062c1.077 76.461 62.461 137.846 137.846 137.846h68.923c76.461 0 137.846-61.385 137.846-137.846v-137.846h-344.615v137.846zM339.692 463.754h155.078l-0.002-172.308h-17.23c-75.385 1.078-136.769 62.461-137.846 137.846v34.462z" />
<glyph unicode="&#xe907;" glyph-name="start" d="M967.11 504.89h-242.801l210.295 121.416c13.059 7.544 22.589 19.967 26.494 34.536s1.864 30.093-5.673 43.158c-7.547 13.061-19.968 22.592-34.536 26.497-14.572 3.905-30.095 1.863-43.158-5.675l-210.313-121.402 121.402 210.295c7.54 13.065 9.581 28.588 5.676 43.158s-13.435 26.992-26.498 34.536c-13.063 7.545-28.59 9.591-43.165 5.69-14.572-3.902-26.999-13.432-34.546-26.495l-121.399-210.294v242.802c0 15.088-5.994 29.558-16.664 40.227-10.667 10.669-25.139 16.662-40.226 16.662s-29.559-5.994-40.226-16.662c-10.67-10.669-16.664-25.139-16.664-40.227v-242.802l-121.4 210.294c-7.544 13.061-19.967 22.592-34.536 26.497s-30.093 1.863-43.158-5.675c-6.471-3.734-12.143-8.706-16.692-14.633s-7.887-12.69-9.822-19.907c-1.935-7.216-2.43-14.743-1.455-22.15s3.397-14.55 7.132-21.021l121.385-210.278-210.278 121.385c-13.065 7.538-28.588 9.58-43.158 5.675s-26.992-13.435-34.536-26.497c-7.54-13.063-9.584-28.585-5.682-43.154s13.429-26.993 26.487-34.54l210.294-121.416h-242.802c-15.088 0-29.558-5.994-40.227-16.664-10.669-10.667-16.662-25.139-16.662-40.226s5.994-29.559 16.662-40.226c10.669-10.67 25.139-16.664 40.227-16.664h242.802l-210.294-121.416c-13.059-7.547-22.586-19.971-26.487-34.54s-1.858-30.092 5.682-43.155c7.544-13.063 19.967-22.593 34.536-26.498s30.093-1.864 43.158 5.676l210.278 121.385-121.385-210.278c-7.538-13.063-9.58-28.587-5.675-43.158 3.905-14.568 13.435-26.993 26.497-34.536 13.064-7.543 28.59-9.591 43.164-5.69s27 13.431 34.547 26.494l121.4 210.278v-242.784c0-15.090 5.994-29.559 16.664-40.226 10.667-10.67 25.139-16.664 40.226-16.664s29.559 5.994 40.226 16.664c10.67 10.667 16.664 25.136 16.664 40.226v242.784l121.399-210.278c7.547-13.059 19.968-22.589 34.536-26.494 14.572-3.905 30.095-1.864 43.158 5.673 13.063 7.547 22.593 19.968 26.498 34.536 3.905 14.572 1.864 30.095-5.676 43.158l-121.385 210.295 210.295-121.385c13.063-7.54 28.587-9.581 43.158-5.676 14.568 3.905 26.993 13.435 34.536 26.498 7.54 13.063 9.581 28.587 5.68 43.155-3.898 14.568-13.428 26.993-26.484 34.54l-210.295 121.416h242.801c15.090 0 29.559 5.994 40.226 16.664 10.67 10.667 16.664 25.139 16.664 40.226s-5.994 29.559-16.664 40.226c-10.667 10.67-25.136 16.664-40.226 16.664z" />
<glyph unicode="&#xe908;" glyph-name="user" d="M662.588 658.824c0 52.706-30.118 101.647-75.294 129.882-47.059 26.353-105.412 26.353-150.588 0-47.059-28.235-75.294-77.176-75.294-129.882 0-54.588 28.235-103.529 75.294-131.765 45.176-26.353 103.529-26.353 150.588 0 45.176 28.235 75.294 77.176 75.294 131.765zM271.059 658.824c0 84.706 45.176 163.765 120.471 207.059 73.412 43.294 165.647 43.294 240.941 0 73.415-43.294 120.471-122.353 120.471-207.059 0-86.588-47.056-165.647-120.471-208.941-75.294-43.294-167.529-43.294-240.941 0-75.294 43.294-120.471 122.353-120.471 208.941zM182.588 26.353h656.941c-16.944 118.591-118.585 210.824-242.824 210.824h-171.294c-124.235 0-225.882-92.232-242.824-210.824zM90.353-9.415c0 186.356 148.706 336.944 335.059 336.944h171.294c186.353 0 336.941-150.588 336.941-336.944 0-30.118-26.353-54.585-56.471-54.585h-732.235c-30.118 0-54.588 24.468-54.588 54.585z" />
<glyph unicode="&#xe909;" glyph-name="search" d="M450.948 972.8c-248.646 0-450.948-202.302-450.948-450.948 0-248.659 202.302-450.95 450.948-450.95 248.659 0 450.95 202.291 450.95 450.95 0 248.646-202.291 450.948-450.95 450.948zM450.948 154.153c-202.746 0-367.696 164.951-367.696 367.697s164.95 367.698 367.696 367.698c202.748 0 367.694-164.95 367.694-367.696 0-202.748-164.946-367.699-367.694-367.699zM1011.814 19.845l-238.659 238.659c-16.261 16.261-42.598 16.261-58.86 0-16.261-16.246-16.261-42.614 0-58.86l238.659-238.659c8.125-8.131 18.77-12.196 29.43-12.196 10.639 0 21.294 4.065 29.43 12.196 16.261 16.251 16.261 42.614 0 58.86z" />
<glyph unicode="&#xe90a;" glyph-name="vector2" horiz-adv-x="1269" d="M1251.174 886.028h-1070.169c-8.444 42.456-45.39 73.972-89.67 73.972-50.424 0-91.335-40.871-91.335-91.335v-836.205c0.079-50.424 40.95-91.295 91.374-91.374h1159.839c9.554 0 17.324 7.77 17.324 17.324v910.215c0 9.593-7.77 17.323-17.324 17.323l-0.040 0.079zM34.647 868.705c0 0.238 0 0.476 0 0.753 0 31.317 25.371 56.688 56.688 56.688s56.688-25.371 56.688-56.688c0-0.278 0-0.515 0-0.793v-744.79h-56.648c-21.486-0.079-41.227-7.532-56.886-19.899l0.198 0.157-0.040 764.572zM1233.811-24.186h-1142.477c-0.238 0-0.476 0-0.753 0-31.317 0-56.688 25.371-56.688 56.687 0 31.318 25.371 56.688 56.688 56.688 0.278 0 0.515 0 0.793 0h73.971c9.594 0 17.364 7.77 17.364 17.364v744.829h1051.142l-0.040-875.568zM244.629 218.778h446.288v-181.005c0-9.554 7.769-17.324 17.322-17.324h168.479c9.594 0 17.362 7.77 17.362 17.364v79.284c0 9.594-7.769 17.324-17.362 17.364h-71.871v458.654c0 9.594-7.77 17.364-17.364 17.364h-79.284c-9.554 0-17.322-7.77-17.322-17.324v-260.287h-349.641v360.026h734.008v-558.395h-71.871c-9.594 0-17.364-7.769-17.364-17.362v-79.284c0-9.554 7.77-17.324 17.324-17.324h168.479c9.552 0 17.322 7.77 17.322 17.324v751.648c0 9.594-7.77 17.324-17.322 17.324h-927.263c-9.592 0-17.362-7.77-17.362-17.364v-553.281c0-9.594 7.77-17.324 17.362-17.362l0.079-0.040zM261.953 772.058h892.575v-716.96h-133.791v44.596h71.87c9.554 0 17.324 7.77 17.324 17.324v593.081c0 9.594-7.77 17.324-17.324 17.324h-768.694c-9.594 0-17.362-7.77-17.362-17.364v-394.714c0-9.594 7.769-17.322 17.362-17.362h384.327c9.594 0 17.324 7.769 17.364 17.362v260.289h44.597v-458.656c0-9.554 7.769-17.324 17.322-17.324h71.871v-44.596h-133.791v181.003c0 9.594-7.77 17.364-17.364 17.364h-446.287v518.633zM403.196 548.994c-9.594 0-17.362-7.77-17.362-17.364v-136.962c0-9.594 7.769-17.322 17.362-17.362h126.617c9.594 0 17.362 7.769 17.362 17.362v136.962c0 9.594-7.769 17.324-17.322 17.324l-126.657 0.040zM512.449 412.032h-91.929v102.276h91.929v-102.276z" />
<glyph unicode="&#xe90b;" glyph-name="pinterest" d="M441.19 295.578c-26.931-141.005-59.75-276.173-157.082-346.778-30.003 213.094 44.083 373.094 78.541 542.976-58.726 98.816 7.066 297.574 130.816 248.576 152.32-60.211-131.891-367.206 58.88-405.606 199.219-39.987 280.525 345.6 156.979 470.989-178.432 181.146-519.475 4.25-477.491-255.078 10.189-63.386 75.674-82.586 26.163-170.086-114.227 25.293-148.326 115.405-143.923 235.52 7.066 196.608 176.589 334.182 346.675 353.28 215.091 24.115 416.973-79.002 444.877-281.293 31.386-228.403-97.075-475.802-327.117-457.984-62.362 4.864-88.474 35.789-137.318 65.485z" />
<glyph unicode="&#xe90c;" glyph-name="cheveron-right" d="M663.040 424.602l36.198 36.198-289.638 289.638-72.397-72.397 217.19-217.242-217.19-217.242 72.397-72.397 253.44 253.44z" />
<glyph unicode="&#xe90d;" glyph-name="cheveron-down" d="M475.802 309.76l36.198-36.198 289.638 289.638-72.397 72.397-217.242-217.19-217.242 217.19-72.397-72.397z" />
<glyph unicode="&#xe90e;" glyph-name="mail-envelope-closed" d="M829.538 285.538l-25.846-25.846-191.692 164.308-84-72-84 72-191.692-164.308-25.846 25.846 189.538 162.462-189.538 162.462 25.846 25.846 275.692-236.308 275.692 236.308 25.846-25.846-189.538-162.462 189.538-162.462zM192.115 704c-35.41 0-64.115-28.624-64.115-63.81v-384.38c0-35.241 28.472-63.81 64.115-63.81h671.77c35.41 0 64.115 28.624 64.115 63.81v384.38c0 35.241-28.472 63.81-64.115 63.81h-671.77z" />
<glyph unicode="&#xe90f;" glyph-name="mail-envelope-open" d="M660.421 320h-266.608l71.819-63.37 72.55-0.347-54.294-0.283h108.112l0.638 0.567-3.18-0.017 70.963 63.449zM696.21 352l103.79 92.801v258.923c0 17.826-14.551 32.276-31.999 32.276h-480.003c-17.672 0-31.999-14.2-31.999-32.066v-262.334l101.546-89.6h338.664zM418.909 768l109.091 96 109.091-96h130.992c35.408 0 63.918-28.648 63.918-63.988v-107.532l96-84.48v-448.19c0-35.185-28.705-63.81-64.115-63.81h-671.77c-35.643 0-64.115 28.569-64.115 63.81v448.19l96 84.48v107.532c0 35.59 28.617 63.988 63.918 63.988h130.992zM589.691 768l-61.691 54.4-61.691-54.4h123.381zM832 554.327v-84.994l48 42.667-48 42.327zM224 469.333v84.994l-48-42.327 48-42.667zM432 224l-224-192h640l-224 192h-192zM885.924 40.795v0 0c6.203 5.866 10.076 14.145 10.076 23.204v416.001l-256-224.547 245.924-214.659zM170.076 40.795l245.924 214.659-256 224.547v-416.001c0-9.060 3.872-17.338 10.076-23.204v0 0zM320 640v-32h416v32h-416zM320 544v-32h416v32h-416zM320 448v-32h416v32h-416z" />
<glyph unicode="&#xe910;" glyph-name="phone_in_talk" d="M640 426.667q0 52-38 90t-90 38v86q88 0 151-63t63-151h-86zM810 426.667q0 124-87 211t-211 87v86q160 0 272-112t112-272h-86zM854 276.667q18 0 30-12t12-30v-150q0-18-12-30t-30-12q-300 0-513 213t-213 513q0 18 12 30t30 12h150q18 0 30-12t12-30v-2q0-82 24-150 4-8 4-14 0-20-14-30l-94-94q40-76 123-159t159-123l94 94q14 14 30 14 6 0 14-4 72-24 152-24z" />
<glyph unicode="&#xe911;" glyph-name="chevrons-left" d="M499.499 243.499l-183.168 183.168 183.168 183.168c16.683 16.683 16.683 43.691 0 60.331s-43.691 16.683-60.331 0l-213.333-213.333c-16.683-16.683-16.683-43.691 0-60.331l213.333-213.333c16.683-16.683 43.691-16.683 60.331 0s16.683 43.691 0 60.331zM798.165 243.499l-183.168 183.168 183.168 183.168c16.683 16.683 16.683 43.691 0 60.331s-43.691 16.683-60.331 0l-213.333-213.333c-16.683-16.683-16.683-43.691 0-60.331l213.333-213.333c16.683-16.683 43.691-16.683 60.331 0s16.683 43.691 0 60.331z" />
<glyph unicode="&#xe912;" glyph-name="fly" d="M172.778 326.053c5.334-4.908 13.172-6.049 19.629-2.822l282.726 139.408-210.875-149.193c-4.947-3.508-7.737-9.299-7.382-15.36l7.243-123.635c1.433-24.462 6.108-45.162 13.527-59.847 12.748-25.255 30.499-28.084 39.941-27.534 11.423 0.671 22.396 6.656 32.592 17.806l39.278 42.951 63.666-38.768c15.899-9.686 34.642-14.181 54.196-13.035 40.372 2.367 80.759 28.399 105.449 67.925l344.743 552.317c23.757 38.068 19.824 61.064 12.352 73.637-4.934 8.326-17.658 22.033-47.309 20.296-9.846-0.577-20.912-2.825-32.942-6.659l-781.792-249.315c-34.881-11.117-57.381-32.232-63.4-59.431-6.002-27.218 5.521-55.833 32.467-80.594l95.889-88.147zM78.71 487.219c3.196 14.482 17.318 26.403 39.773 33.557l781.806 249.335c21.026 6.682 37.365 5.354 39.416 1.87 1.893-3.177 1.832-15.031-11.962-37.132l-344.72-552.319c-18.758-30.037-48.549-49.751-77.744-51.462-12.58-0.736-23.969 1.934-33.872 7.968l-76.007 46.289c-3.155 1.908-6.686 2.738-10.153 2.537-4.434-0.262-8.753-2.203-11.924-5.674l-49.026-53.616c-5.685-6.205-8.728-6.451-8.746-6.474-3.425 0.853-14.116 15.876-16.373 54.409l-6.673 113.911 384.378 271.956c7.46 5.273 9.626 15.437 4.927 23.305-4.68 7.92-14.73 10.793-22.831 6.766l-471.295-232.41-87.044 80.016c-17.338 15.929-25.141 32.686-21.929 47.168z" />
<glyph unicode="&#xe913;" glyph-name="plan" d="M950.233 859.265c-35.744-0.064-65.536-25.505-72.288-59.297l-0.064-0.48h-731.744c-6.816 34.272-36.64 59.712-72.384 59.712-40.704 0-73.728-32.992-73.728-73.728v-675.008c0.064-40.703 33.056-73.696 73.76-73.76h876.513c40.703 0.064 73.696 33.025 73.759 73.728v675.008c-0.063 40.703-33.023 73.696-73.759 73.76l-0.064 0.064zM950.233 831.233c25.247-0.032 45.727-20.48 45.759-45.759v-617.185c-12.447 9.888-28.415 15.872-45.727 15.936h-45.76v601.248c0.032 25.247 20.448 45.727 45.728 45.759zM27.992 785.505c0 0.191 0 0.384 0 0.607 0 25.28 20.48 45.76 45.76 45.76s45.76-20.48 45.76-45.76c0-0.223 0-0.416 0-0.639v-601.216h-45.728c-17.344-0.064-33.28-6.080-45.92-16.064l0.16 0.128-0.032 617.185zM950.233 64.737h-876.48c-0.192 0-0.384 0-0.608 0-25.28 0-45.76 20.48-45.76 45.76s20.48 45.76 45.76 45.76c0.224 0 0.416 0 0.64 0h59.712c7.744 0 14.015 6.271 14.015 14.015v601.248h728.993v-601.248c0-7.744 6.271-13.983 14.015-14.015h59.745c0.191 0 0.384 0 0.607 0 25.28 0 45.76-20.48 45.76-45.76s-20.48-45.76-45.76-45.76c-0.223 0-0.416 0-0.639 0zM743.224 591.522l-223.744 141.792c-2.112 1.376-4.704 2.175-7.488 2.175s-5.377-0.799-7.553-2.207l0.064 0.032-223.744-141.792c-3.936-2.529-6.496-6.881-6.496-11.808v-56c0-7.744 6.272-14.016 14.016-14.016h52.704v-191.583h-52.704c-7.744 0-13.984-6.272-14.016-14.016v-69.664c0-7.744 6.272-14.016 14.016-14.016h447.519c7.744 0 14.016 6.272 14.016 14.016v69.664c0 7.744-6.272 13.984-14.016 14.016h-52.704v191.615h52.704c7.744 0 14.016 6.272 14.016 14.016v56c0 4.928-2.592 9.279-6.464 11.744l-0.064 0.032h-0.064zM721.752 248.45h-419.52v41.663h419.52v-41.663zM550.008 318.114h-75.999v86.015h75.999v-86.015zM655.032 318.114h-77.023v99.999c0 7.744-6.272 14.016-14.016 14.016h-104c-7.744 0-13.984-6.272-14.015-14.016v-99.999h-77.057v191.615h286.080l0.032-191.615zM721.752 537.73h-419.52v34.272l209.761 132.928 209.76-132.928v-34.272z" />
<glyph unicode="&#xe914;" glyph-name="circular-raw" d="M1010.008 454.304h-52.736c-26.752 224.128-215.712 396.224-444.864 396.224-26.24 0-51.937-2.24-76.928-6.592l2.656 0.384-163.649 113.184c-2.207 1.568-4.992 2.496-7.967 2.496h-36.96c-126.72-0.128-229.408-102.816-229.536-229.504v-19.392c0-4.448 2.080-8.415 5.344-10.975l0.032-0.032 110.784-87.425c-24.928-45.855-42.4-99.423-49.184-156.287l-0.192-2.112h-52.736c-7.712 0-13.984-6.24-14.016-13.952v-76.545c0-7.743 6.272-14.015 14.016-14.015h117.28c4.288-31.328 11.68-59.552 21.984-86.368l-0.896 2.623-62.848-36.288c-4.224-2.464-7.008-6.976-7.008-12.128 0-4.16 1.824-7.905 4.704-10.465 27.040-24.095 62.88-38.816 102.177-38.816 5.919 0 11.776 0.321 17.535 0.992l-0.703-0.064c18.591-24.223 39.071-45.408 61.727-64.095l0.672-0.544-36.384-63.040c-1.184-2.016-1.888-4.417-1.888-7.009 0-6.751 4.767-12.383 11.104-13.696h0.096c9.311-2.016 20-3.136 30.943-3.136 34.208 0 65.825 11.169 91.361 30.081l-0.416-0.289c24.928-10.816 53.983-19.424 84.255-24.48l2.24-0.32v-72.64c0-7.712 6.271-13.984 14.015-13.984 1.568 0 3.072 0.255 4.512 0.735l-0.095-0.032c41.536 14.081 74.431 44.257 91.807 82.912l0.385 0.961c32.576 4.191 62.111 11.808 90.016 22.623l-2.592-0.896 36.288-62.848c2.464-4.224 6.976-7.008 12.128-7.008 4.16 0 7.905 1.823 10.465 4.703 24.096 27.009 38.848 62.849 38.848 102.145 0 5.952-0.352 11.84-0.992 17.6l0.064-0.704c24.224 18.592 45.408 39.072 64.096 61.727l0.544 0.672 63.039-36.384c2.017-1.184 4.417-1.888 7.009-1.888 6.752 0 12.352 4.768 13.696 11.104v0.096c2.016 9.312 3.168 20.032 3.168 30.975 0 34.209-11.168 65.793-30.049 91.328l0.289-0.416c12.096 27.903 21.312 60.352 26.080 94.176l0.225 2.016h117.12c7.744 0 13.983 6.272 13.983 14.016v76.575c0 7.744-6.303 14.016-14.047 14.016zM27.992 717.856v12.608c0.128 111.264 90.304 201.408 201.536 201.536h32.609l138.272-95.584c-24.224-6.239-44.704-13.312-64.481-21.759l2.913 1.12-89.345 61.792c-2.239 1.568-4.992 2.496-7.967 2.496h-12.033c-75.328-0.256-137.568-55.969-148-128.416l-0.096-0.799c-0.096-0.576-0.128-1.216-0.128-1.889 0-4.448 2.080-8.415 5.312-10.975l0.032-0.032 73.504-58.016c-9.92-12.384-19.777-26.272-28.864-40.735l-1.088-1.889-102.176 80.544zM178.104 701.376l-67.648 53.376c11.84 55.808 60.607 97.088 119.072 97.28h7.648l72.097-49.856c-38.56-19.776-71.776-43.135-101.313-70.431l0.289 0.287c-10.603-9.792-20.629-20.010-30.144-30.656zM511.993 822.529c213.312-1.281 389.152-160.161 416.927-366.049l0.257-2.175h-172.16v120.095c-0.064 43.072-34.944 77.952-77.984 78.016h-334.015c-43.072-0.064-77.952-34.944-78.016-77.984v-120.095h-172.16c28.032 208.063 203.84 366.944 417.024 368.223l0.128-0.031zM295 455.040v119.36c0.032 27.616 22.401 49.984 49.985 50.016h334.015c27.616-0.032 49.953-22.4 50.017-49.984v-119.36l-434.017-0.032zM839.576 242.656c17.888-21.6 28.704-49.568 28.704-80.064 0-1.92-0.032-3.839-0.128-5.727v0.255l-55.2 31.904c-2.016 1.183-4.417 1.888-7.008 1.888-4.513 0-8.513-2.144-11.073-5.44l-0.032-0.032c-21.12-27.361-45.279-50.945-72.288-70.816l-0.992-0.704c-3.52-2.591-5.791-6.687-5.791-11.327 0-0.801 0.063-1.568 0.191-2.337v0.096c1.088-6.272 1.728-13.472 1.728-20.832 0-25.12-7.36-48.513-20-68.16l0.287 0.512-31.807 55.071c-2.465 4.224-6.977 7.009-12.129 7.009-1.952 0-3.807-0.385-5.472-1.12l0.096 0.032c-28.993-12.448-62.624-21.409-97.792-25.184l-1.568-0.128c-5.345-0.576-9.76-4.096-11.617-8.864l-0.032-0.095c-11.264-29.376-32.287-52.928-59.039-67.104l-0.672-0.321v63.648c0 7.104-5.28 12.96-12.128 13.856h-0.064c-36.672 4.863-69.952 14.623-100.832 28.672l2.208-0.896c-1.664 0.767-3.648 1.215-5.696 1.215-3.361 0-6.465-1.183-8.896-3.168l0.032 0.032c-21.6-17.888-49.632-28.735-80.159-28.735-1.889 0-3.776 0.031-5.632 0.127h0.255l31.872 55.232c1.183 2.017 1.856 4.417 1.856 7.009 0 4.512-2.144 8.512-5.44 11.072l-0.032 0.032c-27.361 21.12-50.945 45.281-70.816 72.288l-0.703 0.992c-2.56 3.488-6.688 5.76-11.296 5.76-0.801 0-1.6-0.064-2.369-0.192h0.096c-6.272-1.088-13.472-1.728-20.832-1.728-25.12 0-48.481 7.36-68.128 20l0.512-0.287 55.072 31.808c4.224 2.464 7.009 6.976 7.009 12.128 0 1.952-0.385 3.809-1.12 5.472l0.032-0.095c-10.497 24.416-18.689 52.863-23.2 82.495l-0.257 1.953h208.992c21.952-59.233 77.952-100.673 143.649-100.673 65.695 0 121.696 41.44 143.296 99.617l0.352 1.056h86.496c-25.247-105.632-118.527-183.073-230.048-183.712h-0.063c-7.744 0-14.016-6.272-14.016-14.016s6.272-14.016 14.016-14.016c127.071 0.704 232.96 90.465 258.496 209.984l0.32 1.728h93.792c-5.216-34.561-14.656-65.696-27.873-94.752l0.897 2.208c-0.769-1.664-1.216-3.648-1.216-5.696 0-3.393 1.184-6.497 3.2-8.929zM398.552 349.76h226.88c-20.223-43.265-63.392-72.704-113.439-72.704-50.049 0-93.216 29.439-113.12 71.935l-0.321 0.769zM995.992 377.76h-968v48.544h968v-48.544zM679 588.448h-334.015c-7.744 0-14.016-6.272-14.016-14.016v-69.375c0-7.744 6.272-14.016 14.016-14.016h334.015c7.744 0 14.016 6.272 14.016 14.016v69.375c0 7.744-6.272 14.049-14.016 14.049v-0.032zM664.984 519.040h-306.017v41.376h306.017v-41.376z" />
<glyph unicode="&#xe915;" glyph-name="fork" d="M727.008 168.512c-31.2 0-56.512-25.311-56.512-56.511s25.313-56.512 56.512-56.512c31.2 0 56.512 25.28 56.512 56.48-0.032 31.2-25.313 56.479-56.48 56.511l-0.032 0.032zM727.008 83.52c-15.744 0-28.512 12.768-28.512 28.512 0 15.745 12.768 28.513 28.512 28.513s28.512-12.768 28.512-28.513c-0.032-15.712-12.8-28.512-28.512-28.512zM192.608 168.512c-31.2 0-56.512-25.311-56.512-56.511s25.313-56.512 56.512-56.512c31.2 0 56.511 25.28 56.511 56.48-0.032 31.2-25.311 56.479-56.479 56.511l-0.032 0.032zM192.608 83.52c-15.744 0-28.513 12.768-28.513 28.512 0 15.745 12.769 28.513 28.513 28.513s28.512-12.768 28.512-28.513c-0.032-15.712-12.8-28.512-28.512-28.512zM1010.016 163.52h-174.207c-7.617 15.84-17.984 29.216-30.625 40.032l-0.159 0.128v686.783c0 7.744-6.272 14.016-14.016 14.016h-64c-7.712 0-13.984-6.272-13.984-13.984v-344.799l-210.111 196.416h58.111c25.409 0 46.016 20.608 46.016 46.016s-20.607 46.016-46.016 46.016h-546.976c0 0 0 0-0.032 0-7.744 0-14.016-6.272-14.016-14.015v-393.312c0-0.096 0-0.192 0-0.289v-351.999c0-7.744 6.272-14.016 14.016-14.016h69.824c19.712-41.119 60.992-68.992 108.768-68.992s89.088 27.871 108.448 68.288l0.32 0.735h316.833c19.711-41.12 60.991-68.992 108.799-68.992 51.969 0 96.256 32.959 113.056 79.135l0.257 0.833h169.663c7.744 0 13.984 6.271 14.016 14.015v64c0 7.744-6.272 14.016-14.016 14.016l0.032-0.032zM740.96 876.48h36v-654.976c-10.497 4.96-22.656 8.512-35.424 10.048l-0.576 0.064v82.816c0 0.096 0 0.192 0 0.289v561.76zM618.239 163.52h-316.864c-19.711 41.12-60.991 68.992-108.767 68.992s-89.088-27.871-108.448-68.287l-0.32-0.737h-55.808v249.024h335.295l75.904-106.241c2.56-3.552 6.72-5.855 11.392-5.855h262.399v-68.8c-42.048-5.152-76.991-31.264-94.463-67.424l-0.321-0.737v0.064zM648.961 328.449h-191.201l-75.872 106.239c-2.56 3.552-6.72 5.857-11.392 5.857h-157.504l-37.792 190.272c-1.313 6.465-6.977 11.264-13.728 11.264h-69.472v36.065h344.64l212.352-198.592-0.031-151.104zM92 614.080h57.952l34.464-173.536h-92.416v173.536zM712.961 507.328v-178.879h-36v157.152c0 4.032-1.696 7.648-4.448 10.208l-220.8 206.496c-2.496 2.335-5.857 3.775-9.569 3.775h-364.127c-7.712 0-14.016-6.271-14.048-13.983v-251.584h-36v301.6h433.888l251.105-234.785zM28 806.113h532.992c9.953 0 18.016-8.064 18.016-18.016s-8.064-18.016-18.016-18.016h-532.992v36.032zM28 88.512v47.009h46.4c-1.472-7.072-2.336-15.169-2.336-23.489 0-8.319 0.864-16.447 2.464-24.287l-0.128 0.767h-46.4zM192.608 19.52c-51.104 0-92.512 41.408-92.512 92.512 0 51.105 41.408 92.513 92.512 92.513s92.512-41.408 92.512-92.513c-0.064-51.072-41.472-92.447-92.512-92.512zM310.752 88.512c1.472 7.073 2.337 15.169 2.337 23.489 0 8.319-0.865 16.448-2.465 24.287l0.128-0.767h298.080c-1.504-7.072-2.337-15.169-2.337-23.489 0-8.319 0.865-16.447 2.465-24.255l-0.128 0.767-298.080-0.032zM727.008 19.52c-51.104 0-92.512 41.408-92.512 92.512 0 51.105 41.408 92.513 92.512 92.513s92.512-41.408 92.512-92.513c-0.063-51.072-41.472-92.447-92.512-92.512zM996 99.52h-149.152c0.416 3.744 0.64 8.096 0.64 12.48 0 8.319-0.865 16.448-2.464 24.287l0.127-0.767h150.849v-36z" />
<glyph unicode="&#xe916;" glyph-name="star" d="M512.54 955.077c19.232 0 34.615-11.538 42.307-26.923l132.691-271.154 294.231-44.231c17.31-1.923 30.771-15.384 36.541-30.769 5.77-17.307 1.922-34.617-11.54-48.078l-213.461-211.539 49.999-298.075c3.848-17.31-3.844-36.537-17.306-46.155-15.388-9.614-34.615-11.54-50.003-3.844l-263.459 142.304-263.463-142.304c-15.385-7.696-32.692-5.77-48.077 3.844-13.462 9.618-21.154 28.845-19.231 46.155l51.923 298.075-213.461 211.539c-13.462 13.462-17.308 30.771-11.538 48.078 5.769 15.385 19.231 28.846 36.539 30.769l294.231 44.231 132.693 271.154c7.692 15.385 23.075 26.923 40.385 26.923zM512.54 803.154l-100.001-209.616c-7.692-13.461-19.23-23.077-34.615-25l-228.846-32.691 165.385-163.462c11.538-11.54 15.384-26.923 13.461-42.307l-38.461-228.848 201.925 107.693c13.462 7.692 30.767 7.692 44.229 0l201.925-107.693-38.463 228.848c-3.848 15.384 1.922 30.767 13.462 42.307l163.462 163.462-226.922 32.691c-15.388 1.923-28.849 11.539-34.615 25l-101.923 209.616z" />
<glyph unicode="&#xe917;" glyph-name="link" d="M640 960c-35.402 0-64-28.6-64-64s28.598-64 64-64h165.402l-402.602-402.8c-25.002-24.998-25.002-65.6 0-90.602 24.998-24.998 65.6-24.998 90.598 0l402.602 402.802v-165.4c0-35.398 28.598-64 64-64s64 28.602 64 64v320c0 35.4-28.598 64-64 64h-320zM160 896c-88.4 0-160-71.6-160-160v-640c0-88.4 71.6-160 160-160h640c88.4 0 160 71.6 160 160v224c0 35.402-28.598 64-64 64s-64-28.598-64-64v-224c0-17.6-14.4-32-32-32h-640c-17.6 0-32 14.4-32 32v640c0 17.6 14.4 32 32 32h224c35.398 0 64 28.6 64 64s-28.602 64-64 64h-224z" />
<glyph unicode="&#xe918;" glyph-name="expand-solid-1" horiz-adv-x="886" d="M63.259 896.741c-34.99 0-63.259-28.268-63.259-63.259v-189.777c0-34.988 28.269-63.258 63.259-63.258s63.259 28.271 63.259 63.258v126.519h126.517c34.989 0 63.259 28.268 63.259 63.259s-28.271 63.259-63.259 63.259h-189.776zM126.517 264.156c0 34.988-28.269 63.258-63.259 63.258s-63.259-28.271-63.259-63.258v-189.778c0-34.99 28.269-63.258 63.259-63.258h189.776c34.989 0 63.259 28.268 63.259 63.258s-28.271 63.258-63.259 63.258h-126.517v126.519zM632.586 896.741c-34.988 0-63.258-28.268-63.258-63.259s28.271-63.259 63.258-63.259h126.519v-126.519c0-34.988 28.268-63.258 63.258-63.258s63.258 28.271 63.258 63.258v189.777c0 34.99-28.268 63.259-63.258 63.259h-189.778zM885.622 264.156c0 34.988-28.268 63.258-63.258 63.258s-63.258-28.271-63.258-63.258v-126.519h-126.519c-34.988 0-63.258-28.268-63.258-63.258s28.271-63.258 63.258-63.258h189.778c34.99 0 63.258 28.268 63.258 63.258v189.778z" />
<glyph unicode="&#xe919;" glyph-name="next" horiz-adv-x="1902" d="M1889.148 453.636l-432.201 432.202c-15.521 18.129-42.811 20.243-60.935 4.713-18.132-15.525-20.246-42.81-4.718-60.939 1.448-1.69 3.028-3.269 4.718-4.713l358.29-358.727h-1711.084c-23.868 0-43.219-19.351-43.219-43.222s19.351-43.219 43.219-43.219h1711.084l-358.29-358.292c-18.132-15.528-20.246-42.811-4.718-60.943 15.528-18.125 42.811-20.239 60.943-4.71 1.69 1.448 3.269 3.021 4.71 4.71l432.201 432.206c16.757 16.851 16.757 44.077 0 60.935z" />
<glyph unicode="&#xe91a;" glyph-name="back" horiz-adv-x="1902" d="M12.568 392.703l432.198-432.2c15.525-18.132 42.81-20.246 60.939-4.718s20.242 42.811 4.713 60.943c-1.448 1.69-3.023 3.269-4.713 4.71l-358.292 358.729h1711.081c23.867 0 43.22 19.351 43.22 43.222s-19.354 43.219-43.22 43.219h-1711.081l358.292 358.292c18.129 15.525 20.242 42.811 4.713 60.94s-42.81 20.242-60.939 4.713c-1.69-1.449-3.269-3.023-4.713-4.713l-432.202-432.202c-16.755-16.851-16.755-44.077 0.004-60.936z" />
<glyph unicode="&#xe91b;" glyph-name="v-social" horiz-adv-x="1210" d="M1162.957 907.455c-11.031 12.606-24.427 22.061-40.187 28.364-14.178 7.879-29.938 13.394-47.272 16.545s-34.667 3.939-52.001 2.364c-17.334 0-33.876-0.788-49.636-2.364-11.031-1.576-29.147-7.879-54.361-18.909-23.636-11.030-49.636-26.788-78-47.273-26.788-20.485-52.788-46.485-78-78-25.212-29.939-44.909-66.97-59.091-111.091 25.213 1.576 47.273 1.576 66.182 0s33.879-6.303 44.909-14.181c12.606-7.879 21.273-20.485 26-37.818 6.303-15.757 7.879-37.031 4.727-63.818-1.576-11.030-3.94-22.848-7.091-35.455-3.151-11.030-7.091-22.848-11.818-35.455s-10.243-25.212-16.546-37.818c-4.727-11.030-10.242-22.848-16.545-35.455-7.879-14.181-17.334-29.939-28.364-47.272-9.454-17.334-21.272-32.303-35.455-44.909-12.606-12.606-27.575-19.697-44.909-21.273-15.757-1.575-32.303 7.879-49.636 28.364-17.334 17.334-30.727 37.818-40.182 61.455-7.879 25.212-14.182 51.212-18.91 78-3.151 26.788-6.303 53.576-9.454 80.364-1.576 28.364-3.94 53.576-7.091 75.636-3.152 12.605-6.303 25.212-9.455 37.818-1.575 14.181-3.939 28.364-7.091 42.545-1.576 14.181-3.94 28.364-7.091 42.545s-7.091 28.364-11.818 42.545c-3.152 11.030-7.879 22.061-14.182 33.091-4.727 12.606-11.030 23.636-18.909 33.091s-16.546 18.121-26 26c-7.878 7.879-16.545 13.394-26 16.546-11.030 3.151-22.848 3.939-35.454 2.364-11.030 0-22.849-1.576-35.455-4.727-11.030-1.576-22.061-4.727-33.091-9.454-9.455-4.727-18.121-9.455-26-14.182-23.637-14.182-46.485-29.939-68.546-47.273-20.485-17.334-40.969-35.455-61.454-54.363-20.486-17.334-41.758-35.455-63.818-54.364-20.485-17.334-42.546-34.666-66.182-52v-7.091c7.879-4.727 13.394-9.455 16.546-14.182 4.727-4.727 7.879-9.454 9.454-14.181 3.151-4.727 5.515-8.667 7.091-11.818 3.151-3.152 7.879-5.516 14.181-7.092 15.757-1.575 30.727 0 44.91 4.728s27.575 8.666 40.182 11.818c12.605 3.151 24.424 3.151 35.455 0 12.605-1.576 24.424-10.243 35.455-26 6.302-11.030 11.029-22.061 14.181-33.091 4.727-9.454 8.667-19.697 11.818-30.727s6.303-22.060 9.454-33.090c3.152-11.030 6.303-22.061 9.455-33.091 6.303-14.182 11.030-29.151 14.181-44.909 4.727-14.182 9.454-29.152 14.181-44.91s8.667-32.303 11.819-49.636c4.727-15.757 9.454-31.515 14.181-47.272 6.303-28.364 13.394-59.879 21.273-94.546 9.454-33.091 20.485-65.394 33.091-96.909 12.605-29.94 26.788-57.515 42.545-82.727 17.333-23.638 38.606-40.18 63.818-49.638 12.606-6.302 26-9.458 40.182-9.458 15.758 1.583 30.727 3.947 44.91 7.094 15.757 3.156 29.939 7.885 42.545 14.187 14.181 6.302 25.999 11.813 35.455 16.542 25.212 15.76 48.849 32.303 70.909 49.636 23.636 18.91 45.696 38.607 66.181 59.091 22.061 20.485 41.758 41.758 59.091 63.818 18.909 22.060 37.031 44.12 54.363 66.181 39.395 53.576 74.062 107.151 104 160.728 31.511 55.151 57.512 106.363 78.001 153.636 22.063 48.849 39.396 91.394 52.001 127.636s20.48 63.030 23.636 80.364c1.573 12.606 2.365 24.424 2.365 35.455 1.573 12.606 1.573 24.424 0 35.455 0 11.030-2.365 22.061-7.094 33.091s-10.24 21.273-16.542 30.727z" />
<glyph unicode="&#xe91c;" glyph-name="watch_later" d="M692 246.667l34 56-192 116v222h-64v-256zM512 852.667q176 0 301-125t125-301-125-301-301-125-301 125-125 301 125 301 301 125z" />
<glyph unicode="&#xe91d;" glyph-name="check" d="M823.168 712.832l-439.168-439.168-183.168 183.168c-16.683 16.683-43.691 16.683-60.331 0s-16.683-43.691 0-60.331l213.333-213.333c16.683-16.683 43.691-16.683 60.331 0l469.333 469.333c16.683 16.683 16.683 43.691 0 60.331s-43.691 16.683-60.331 0z" />
<glyph unicode="&#xe91e;" glyph-name="cheveron-left" d="M360.96 496.998l-36.198-36.198 289.638-289.638 72.397 72.397-217.19 217.242 217.19 217.242-72.397 72.397z" />
<glyph unicode="&#xe91f;" glyph-name="star-full" d="M457.059 875.53l-114.706-234.706-259.412-37.059c-45.882-7.059-63.529-63.53-30-97.059l185.294-181.767-44.118-255.88c-7.059-45.881 42.353-81.179 82.941-60l231.176 121.766 229.412-121.766c40.587-21.179 89.998 14.119 82.938 60l-44.116 255.88 185.296 181.767c33.527 33.529 15.884 90-29.997 97.059l-257.65 37.059-116.47 234.706c-19.411 40.588-79.412 42.353-100.588 0z" />
<glyph unicode="&#xe942;" glyph-name="phone" d="M704 320c-64-64-64-128-128-128s-128 64-192 128-128 128-128 192 64 64 128 128-128 256-192 256-192-192-192-192c0-128 131.5-387.5 256-512s384-256 512-256c0 0 192 128 192 192s-192 256-256 192z" />
<glyph unicode="&#xe96d;" glyph-name="bubbles2" horiz-adv-x="1152" d="M480 960v0c265.096 0 480-173.914 480-388.448s-214.904-388.448-480-388.448c-25.458 0-50.446 1.62-74.834 4.71-103.106-102.694-222.172-121.108-341.166-123.814v25.134c64.252 31.354 116 88.466 116 153.734 0 9.106-0.712 18.048-2.030 26.794-108.558 71.214-177.97 179.988-177.97 301.89 0 214.534 214.904 388.448 480 388.448zM996 89.314c0-55.942 36.314-104.898 92-131.772v-21.542c-103.126 2.318-197.786 18.102-287.142 106.126-21.14-2.65-42.794-4.040-64.858-4.040-95.47 0-183.408 25.758-253.614 69.040 144.674 0.506 281.26 46.854 384.834 130.672 52.208 42.252 93.394 91.826 122.414 147.348 30.766 58.866 46.366 121.582 46.366 186.406 0 10.448-0.45 20.836-1.258 31.168 72.57-59.934 117.258-141.622 117.258-231.676 0-104.488-60.158-197.722-154.24-258.764-1.142-7.496-1.76-15.16-1.76-22.966z" />
<glyph unicode="&#xea90;" glyph-name="facebook" d="M608 768h160v192h-160c-123.514 0-224-100.486-224-224v-96h-128v-192h128v-512h192v512h160l32 192h-192v96c0 17.346 14.654 32 32 32z" />
<glyph unicode="&#xea92;" glyph-name="instagram" d="M512 867.8c136.8 0 153-0.6 206.8-3 50-2.2 77-10.6 95-17.6 23.8-9.2 41-20.4 58.8-38.2 18-18 29-35 38.4-58.8 7-18 15.4-45.2 17.6-95 2.4-54 3-70.2 3-206.8s-0.6-153-3-206.8c-2.2-50-10.6-77-17.6-95-9.2-23.8-20.4-41-38.2-58.8-18-18-35-29-58.8-38.4-18-7-45.2-15.4-95-17.6-54-2.4-70.2-3-206.8-3s-153 0.6-206.8 3c-50 2.2-77 10.6-95 17.6-23.8 9.2-41 20.4-58.8 38.2-18 18-29 35-38.4 58.8-7 18-15.4 45.2-17.6 95-2.4 54-3 70.2-3 206.8s0.6 153 3 206.8c2.2 50 10.6 77 17.6 95 9.2 23.8 20.4 41 38.2 58.8 18 18 35 29 58.8 38.4 18 7 45.2 15.4 95 17.6 53.8 2.4 70 3 206.8 3zM512 960c-139 0-156.4-0.6-211-3-54.4-2.4-91.8-11.2-124.2-23.8-33.8-13.2-62.4-30.6-90.8-59.2-28.6-28.4-46-57-59.2-90.6-12.6-32.6-21.4-69.8-23.8-124.2-2.4-54.8-3-72.2-3-211.2s0.6-156.4 3-211c2.4-54.4 11.2-91.8 23.8-124.2 13.2-33.8 30.6-62.4 59.2-90.8 28.4-28.4 57-46 90.6-59 32.6-12.6 69.8-21.4 124.2-23.8 54.6-2.4 72-3 211-3s156.4 0.6 211 3c54.4 2.4 91.8 11.2 124.2 23.8 33.6 13 62.2 30.6 90.6 59s46 57 59 90.6c12.6 32.6 21.4 69.8 23.8 124.2 2.4 54.6 3 72 3 211s-0.6 156.4-3 211c-2.4 54.4-11.2 91.8-23.8 124.2-12.6 34-30 62.6-58.6 91-28.4 28.4-57 46-90.6 59-32.6 12.6-69.8 21.4-124.2 23.8-54.8 2.6-72.2 3.2-211.2 3.2v0zM512 711c-145.2 0-263-117.8-263-263s117.8-263 263-263 263 117.8 263 263c0 145.2-117.8 263-263 263zM512 277.4c-94.2 0-170.6 76.4-170.6 170.6s76.4 170.6 170.6 170.6c94.2 0 170.6-76.4 170.6-170.6s-76.4-170.6-170.6-170.6zM846.8 721.4c0-33.91-27.49-61.4-61.4-61.4s-61.4 27.49-61.4 61.4c0 33.91 27.49 61.4 61.4 61.4s61.4-27.49 61.4-61.4z" />
<glyph unicode="&#xea96;" glyph-name="twitter" d="M1024 733.6c-37.6-16.8-78.2-28-120.6-33 43.4 26 76.6 67.2 92.4 116.2-40.6-24-85.6-41.6-133.4-51-38.4 40.8-93 66.2-153.4 66.2-116 0-210-94-210-210 0-16.4 1.8-32.4 5.4-47.8-174.6 8.8-329.4 92.4-433 219.6-18-31-28.4-67.2-28.4-105.6 0-72.8 37-137.2 93.4-174.8-34.4 1-66.8 10.6-95.2 26.2 0-0.8 0-1.8 0-2.6 0-101.8 72.4-186.8 168.6-206-17.6-4.8-36.2-7.4-55.4-7.4-13.6 0-26.6 1.4-39.6 3.8 26.8-83.4 104.4-144.2 196.2-146-72-56.4-162.4-90-261-90-17 0-33.6 1-50.2 3 93.2-59.8 203.6-94.4 322.2-94.4 386.4 0 597.8 320.2 597.8 597.8 0 9.2-0.2 18.2-0.6 27.2 41 29.4 76.6 66.4 104.8 108.6z" />
</font>
</defs>
</svg>
